<svg width="839" height="71" viewBox="0 0 839 71" fill="none" xmlns="http://www.w3.org/2000/svg">
<path d="M35.96 68.672C33.4 68.672 30.776 68.608 28.088 68.48C25.464 68.352 23.096 68.224 20.984 68.096C18.872 68.032 17.4 68 16.568 68C15.288 68 13.784 68 12.056 68C10.392 68.064 8.664 68.128 6.872 68.192C5.144 68.256 3.576 68.288 2.168 68.288C1.784 68.288 1.4 68.16 1.016 67.904C0.632 67.648 0.44 67.296 0.44 66.848C0.44 66.272 0.6 65.824 0.92 65.504C1.24 65.12 1.688 64.864 2.264 64.736C4.696 64.224 6.36 63.584 7.256 62.816C8.152 62.048 8.6 60.672 8.6 58.688V15.104C8.6 13.056 8.184 11.616 7.352 10.784C6.52 9.952 4.824 9.248 2.264 8.672C1.688 8.544 1.24 8.32 0.92 8C0.6 7.616 0.44 7.136 0.44 6.56C0.44 6.112 0.632 5.76 1.016 5.504C1.4 5.248 1.784 5.12 2.168 5.12C3.576 5.12 5.144 5.152 6.872 5.216C8.664 5.27999 10.392 5.376 12.056 5.504C13.784 5.568 15.288 5.6 16.568 5.6C17.528 5.6 18.84 5.568 20.504 5.504C22.232 5.376 24.088 5.27999 26.072 5.216C28.12 5.088 30.104 4.992 32.024 4.928C33.944 4.8 35.544 4.736 36.824 4.736C41.304 4.736 45.56 5.504 49.592 7.04C53.624 8.512 57.208 10.624 60.344 13.376C63.48 16.128 65.944 19.424 67.736 23.264C69.528 27.04 70.424 31.232 70.424 35.84C70.424 40.064 69.688 44.16 68.216 48.128C66.744 52.032 64.536 55.52 61.592 58.592C58.712 61.664 55.128 64.128 50.84 65.984C46.552 67.776 41.592 68.672 35.96 68.672ZM34.424 63.392C38.648 63.392 42.104 62.368 44.792 60.32C47.544 58.272 49.56 55.392 50.84 51.68C52.184 47.968 52.856 43.616 52.856 38.624C52.856 34.4 52.44 30.56 51.608 27.104C50.84 23.648 49.656 20.672 48.056 18.176C46.456 15.68 44.44 13.76 42.008 12.416C39.576 11.008 36.728 10.304 33.464 10.304C31.544 10.304 29.944 10.368 28.664 10.496C27.448 10.624 26.52 10.912 25.88 11.36C25.24 11.744 24.92 12.448 24.92 13.472V55.136C24.92 57.12 25.24 58.72 25.88 59.936C26.584 61.152 27.64 62.048 29.048 62.624C30.456 63.136 32.248 63.392 34.424 63.392ZM105.613 70.016C105.037 70.016 104.749 69.696 104.749 69.056C104.749 68.288 104.813 67.264 104.941 65.984C105.133 64.64 105.229 63.648 105.229 63.008C105.229 62.688 105.197 62.432 105.133 62.24C105.133 62.048 105.101 61.92 105.037 61.856C103.501 63.84 101.357 65.6 98.6053 67.136C95.8533 68.672 93.0053 69.44 90.0613 69.44C88.0773 69.44 86.2853 68.832 84.6853 67.616C83.0853 66.336 81.8053 64.64 80.8453 62.528C79.9493 60.416 79.5013 58.08 79.5013 55.52V37.856C79.5013 36.384 79.2453 35.2 78.7333 34.304C78.2213 33.344 77.2293 32.736 75.7573 32.48C75.3733 32.416 75.0213 32.256 74.7013 32C74.3813 31.68 74.2213 31.232 74.2213 30.656C74.2213 30.208 74.3493 29.824 74.6053 29.504C74.8613 29.184 75.2133 28.992 75.6613 28.928C78.4773 28.8 81.0693 28.512 83.4373 28.064C85.8693 27.616 88.2693 27.104 90.6373 26.528C90.9573 26.4 91.3093 26.304 91.6933 26.24C92.1413 26.112 92.5573 26.048 92.9413 26.048C93.8373 26.048 94.2533 26.496 94.1893 27.392C93.9333 28.864 93.7413 30.112 93.6133 31.136C93.4853 32.096 93.4213 33.312 93.4213 34.784V53.12C93.4213 54.656 93.6453 56 94.0933 57.152C94.5413 58.24 95.1813 59.104 96.0133 59.744C96.8453 60.32 97.7733 60.64 98.7973 60.704C99.6933 60.704 100.589 60.576 101.485 60.32C102.445 60 103.341 59.424 104.173 58.592C104.493 58.272 104.781 57.632 105.037 56.672C105.357 55.712 105.517 54.432 105.517 52.832V37.856C105.517 36.768 105.325 35.84 104.941 35.072C104.621 34.304 104.077 33.696 103.309 33.248C102.605 32.736 101.709 32.448 100.621 32.384C99.8533 32.32 99.2453 32.128 98.7973 31.808C98.4133 31.488 98.2213 30.944 98.2213 30.176C98.2213 29.472 98.4453 28.96 98.8933 28.64C99.4053 28.32 99.9813 28.16 100.621 28.16C104.141 27.904 106.925 27.712 108.973 27.584C111.021 27.392 112.685 27.2 113.965 27.008C115.245 26.816 116.493 26.592 117.709 26.336C117.901 26.272 118.125 26.208 118.381 26.144C118.637 26.08 118.861 26.048 119.053 26.048C120.013 26.048 120.493 26.432 120.493 27.2C120.493 27.456 120.461 27.712 120.397 27.968C120.333 28.224 120.237 28.512 120.109 28.832C120.045 29.088 119.949 29.664 119.821 30.56C119.757 31.392 119.661 32.288 119.533 33.248C119.469 34.208 119.437 34.976 119.437 35.552V57.824C119.437 59.232 119.597 60.16 119.917 60.608C120.301 61.056 120.717 61.28 121.165 61.28C121.421 61.28 121.805 61.312 122.317 61.376C122.893 61.376 123.277 61.376 123.469 61.376C124.109 61.376 124.589 61.568 124.909 61.952C125.229 62.272 125.389 62.688 125.389 63.2C125.389 63.84 125.261 64.352 125.005 64.736C124.813 65.12 124.365 65.344 123.661 65.408C120.461 65.664 117.549 66.208 114.925 67.04C112.301 67.872 110.061 68.64 108.205 69.344C107.757 69.536 107.309 69.696 106.861 69.824C106.413 69.952 105.997 70.016 105.613 70.016ZM129.965 68.288C129.581 68.288 129.165 68.16 128.717 67.904C128.269 67.648 128.045 67.296 128.045 66.848C128.045 66.336 128.269 65.92 128.717 65.6C129.229 65.28 129.741 65.024 130.253 64.832C131.213 64.512 132.045 64.16 132.749 63.776C133.453 63.328 133.805 62.464 133.805 61.184V38.912C133.805 37.632 133.581 36.544 133.133 35.648C132.749 34.688 132.013 34.112 130.925 33.92C130.669 33.856 130.413 33.696 130.157 33.44C129.965 33.12 129.869 32.672 129.869 32.096C129.869 31.136 130.189 30.56 130.829 30.368C133.005 29.856 135.533 29.184 138.413 28.352C141.293 27.456 143.693 26.528 145.613 25.568C145.933 25.44 146.253 25.28 146.573 25.088C146.957 24.832 147.277 24.704 147.533 24.704C147.981 24.704 148.237 24.832 148.301 25.088C148.429 25.344 148.493 25.632 148.493 25.952C148.493 26.464 148.397 27.264 148.205 28.352C148.077 29.44 148.013 30.432 148.013 31.328C148.013 31.584 148.013 31.872 148.013 32.192C148.077 32.512 148.141 32.704 148.205 32.768C150.381 30.72 152.525 29.12 154.637 27.968C156.813 26.752 159.373 26.144 162.317 26.144C165.709 26.144 168.557 27.36 170.861 29.792C173.165 32.224 174.317 35.616 174.317 39.968V61.28C174.317 62.56 174.669 63.392 175.373 63.776C176.077 64.16 176.909 64.512 177.869 64.832C178.381 65.024 178.829 65.28 179.213 65.6C179.597 65.92 179.789 66.336 179.789 66.848C179.789 67.296 179.597 67.648 179.213 67.904C178.893 68.16 178.541 68.288 178.157 68.288C176.877 68.288 175.629 68.224 174.413 68.096C173.197 68.032 172.013 67.968 170.861 67.904C169.709 67.84 168.557 67.808 167.405 67.808C166.317 67.808 165.197 67.84 164.045 67.904C162.893 67.968 161.709 68.032 160.493 68.096C159.341 68.224 158.125 68.288 156.845 68.288C156.461 68.288 156.109 68.16 155.789 67.904C155.469 67.648 155.309 67.296 155.309 66.848C155.309 66.336 155.469 65.92 155.789 65.6C156.173 65.28 156.621 65.024 157.133 64.832C158.093 64.512 158.861 64.16 159.437 63.776C160.077 63.392 160.397 62.56 160.397 61.28V42.368C160.397 40 159.885 38.144 158.861 36.8C157.837 35.456 156.493 34.784 154.829 34.784C153.613 34.784 152.525 34.976 151.565 35.36C150.605 35.68 149.581 36.224 148.493 36.992C148.237 37.184 148.045 37.44 147.917 37.76C147.789 38.08 147.725 38.4 147.725 38.72V61.28C147.725 62.56 148.045 63.392 148.685 63.776C149.325 64.16 150.093 64.512 150.989 64.832C152.205 65.28 152.813 65.952 152.813 66.848C152.813 67.232 152.653 67.584 152.333 67.904C152.013 68.16 151.661 68.288 151.277 68.288C149.997 68.288 148.781 68.224 147.629 68.096C146.477 68.032 145.357 67.968 144.269 67.904C143.245 67.84 142.157 67.808 141.005 67.808C139.917 67.808 138.765 67.84 137.549 67.904C136.333 67.968 135.085 68.032 133.805 68.096C132.525 68.224 131.245 68.288 129.965 68.288ZM206.628 69.344C204.644 69.344 202.852 69.184 201.252 68.864C199.652 68.544 198.212 68.192 196.932 67.808C196.036 67.552 195.204 67.36 194.436 67.232C193.732 67.04 193.092 66.944 192.516 66.944C191.876 66.944 191.236 67.072 190.596 67.328C189.956 67.52 189.38 67.808 188.868 68.192C188.228 68.64 187.716 68.864 187.332 68.864C186.692 68.864 186.212 68.736 185.892 68.48C185.636 68.224 185.508 67.936 185.508 67.616C185.508 67.04 185.7 65.888 186.084 64.16C186.468 62.432 186.628 60.192 186.564 57.44L186.084 15.584C186.084 13.856 185.892 12.352 185.508 11.072C185.124 9.728 184.132 8.928 182.532 8.672C182.212 8.608 181.924 8.448 181.668 8.192C181.476 7.936 181.38 7.584 181.38 7.136C181.38 6.752 181.476 6.432 181.668 6.17599C181.86 5.92 182.116 5.76 182.436 5.696C183.972 5.376 185.7 4.928 187.62 4.352C189.604 3.712 191.524 3.04 193.38 2.336C195.236 1.632 196.708 1.088 197.796 0.703997C198.436 0.447996 198.916 0.319996 199.236 0.319996C199.684 0.319996 199.972 0.447996 200.1 0.703997C200.292 0.959997 200.388 1.248 200.388 1.568C200.388 2.016 200.292 2.78399 200.1 3.872C199.972 4.896 199.908 5.856 199.908 6.752L199.812 27.488C199.812 28.256 199.876 28.896 200.004 29.408C200.196 29.856 200.42 30.08 200.676 30.08C202.66 28.8 204.676 27.84 206.724 27.2C208.772 26.496 210.724 26.144 212.58 26.144C215.972 26.144 219.012 27.04 221.7 28.832C224.388 30.56 226.5 32.928 228.036 35.936C229.636 38.944 230.436 42.368 230.436 46.208C230.436 50.752 229.412 54.784 227.364 58.304C225.38 61.76 222.596 64.48 219.012 66.464C215.492 68.384 211.364 69.344 206.628 69.344ZM208.164 65.024C209.764 65.024 211.108 64.288 212.196 62.816C213.284 61.28 214.116 59.296 214.692 56.864C215.332 54.368 215.652 51.68 215.652 48.8C215.652 46.24 215.332 43.648 214.692 41.024C214.116 38.4 213.156 36.224 211.812 34.496C210.532 32.704 208.836 31.808 206.724 31.808C205.892 31.808 204.74 31.936 203.268 32.192C201.86 32.448 200.708 32.896 199.812 33.536V54.368C199.812 56.416 200.196 58.272 200.964 59.936C201.796 61.536 202.852 62.784 204.132 63.68C205.412 64.576 206.756 65.024 208.164 65.024ZM245.109 69.344C243.254 69.344 241.558 68.928 240.022 68.096C238.486 67.328 237.27 66.272 236.374 64.928C235.478 63.52 235.03 61.984 235.03 60.32C235.03 58.08 235.734 56.192 237.142 54.656C238.614 53.12 240.726 51.744 243.478 50.528L251.734 46.88C253.014 46.304 253.814 45.792 254.134 45.344C254.454 44.832 254.614 43.968 254.614 42.752L254.71 37.472C254.774 35.616 254.486 34.208 253.846 33.248C253.206 32.224 252.214 31.712 250.87 31.712C250.102 31.712 249.302 31.904 248.47 32.288C247.638 32.608 247.03 32.992 246.646 33.44C246.454 33.696 246.326 33.984 246.262 34.304C246.198 34.624 246.166 34.944 246.166 35.264C246.166 35.648 246.198 36.16 246.262 36.8C246.326 37.376 246.358 37.856 246.358 38.24C246.358 38.688 245.814 39.232 244.726 39.872C243.638 40.448 242.39 40.992 240.982 41.504C239.574 41.952 238.358 42.176 237.334 42.176C236.822 42.176 236.374 41.984 235.99 41.6C235.67 41.152 235.51 40.608 235.51 39.968C235.51 38.944 235.862 37.952 236.566 36.992C237.27 36.032 238.454 34.88 240.118 33.536C241.846 32.128 243.734 30.88 245.782 29.792C247.83 28.704 249.846 27.84 251.83 27.2C253.814 26.496 255.51 26.144 256.918 26.144C260.566 26.144 263.478 27.328 265.654 29.696C267.83 32 268.854 35.104 268.726 39.008L268.246 57.632C268.182 59.104 268.406 60.384 268.918 61.472C269.494 62.496 270.198 63.008 271.03 63.008C272.182 63.008 273.206 62.592 274.102 61.76C274.294 61.568 274.486 61.472 274.678 61.472C274.998 61.472 275.254 61.6 275.446 61.856C275.702 62.048 275.83 62.304 275.83 62.624C275.83 63.392 275.19 64.416 273.91 65.696C272.694 66.912 271.382 67.808 269.974 68.384C268.566 69.024 267.094 69.344 265.558 69.344C261.846 69.344 258.742 67.488 256.246 63.776H256.054C253.942 65.76 252.054 67.168 250.39 68C248.726 68.896 246.966 69.344 245.109 69.344ZM251.062 62.72C251.638 62.72 252.118 62.624 252.502 62.432C252.886 62.24 253.238 61.92 253.558 61.472C253.75 61.216 253.878 60.896 253.942 60.512C254.07 60.128 254.134 59.712 254.134 59.264L254.422 51.872C254.422 51.296 254.326 50.944 254.134 50.816C253.942 50.624 253.718 50.528 253.462 50.528C253.334 50.528 253.174 50.56 252.982 50.624C252.854 50.624 252.694 50.688 252.502 50.816C250.966 51.648 249.782 52.512 248.95 53.408C248.182 54.24 247.798 55.776 247.798 58.016C247.798 59.872 248.15 61.12 248.854 61.76C249.622 62.4 250.358 62.72 251.062 62.72ZM291.695 69.344C289.519 69.344 287.407 69.088 285.359 68.576C283.375 68.128 281.519 67.328 279.791 66.176C279.151 65.152 278.703 63.584 278.447 61.472C278.191 59.296 278.095 56.96 278.159 54.464C278.159 53.632 278.831 53.216 280.175 53.216C280.751 53.216 281.231 53.408 281.615 53.792C282.063 54.176 282.351 54.528 282.479 54.848C283.759 57.408 285.167 59.712 286.703 61.76C288.239 63.744 290.191 64.736 292.559 64.736C294.223 64.736 295.439 64.224 296.207 63.2C297.039 62.176 297.455 61.056 297.455 59.84C297.455 58.176 296.783 56.8 295.439 55.712C294.095 54.624 292.623 53.696 291.023 52.928C289.231 52.032 287.471 51.008 285.743 49.856C284.015 48.64 282.575 47.136 281.423 45.344C280.271 43.552 279.695 41.376 279.695 38.816C279.695 36.192 280.399 33.952 281.807 32.096C283.279 30.176 285.231 28.704 287.663 27.68C290.095 26.592 292.751 26.048 295.631 26.048C297.807 26.048 299.823 26.304 301.679 26.816C303.599 27.264 304.911 27.712 305.615 28.16C306.127 28.8 306.511 30.048 306.767 31.904C307.087 33.696 307.247 35.744 307.247 38.048C307.247 38.752 306.607 39.104 305.327 39.104C304.879 39.104 304.399 38.944 303.887 38.624C303.375 38.24 303.055 37.888 302.927 37.568C302.095 35.008 301.007 33.088 299.663 31.808C298.383 30.528 296.975 29.888 295.439 29.888C294.031 29.888 292.751 30.336 291.599 31.232C290.511 32.128 289.967 33.312 289.967 34.784C289.967 36.064 290.607 37.248 291.887 38.336C293.231 39.36 294.767 40.32 296.495 41.216C300.719 43.392 303.727 45.504 305.519 47.552C307.311 49.6 308.207 52.352 308.207 55.808C308.207 60.096 306.831 63.424 304.079 65.792C301.327 68.16 297.199 69.344 291.695 69.344ZM327.039 69.344C324.863 69.344 322.751 69.088 320.703 68.576C318.719 68.128 316.863 67.328 315.135 66.176C314.495 65.152 314.047 63.584 313.791 61.472C313.535 59.296 313.439 56.96 313.503 54.464C313.503 53.632 314.175 53.216 315.519 53.216C316.095 53.216 316.575 53.408 316.959 53.792C317.407 54.176 317.695 54.528 317.823 54.848C319.103 57.408 320.511 59.712 322.047 61.76C323.583 63.744 325.535 64.736 327.903 64.736C329.567 64.736 330.783 64.224 331.551 63.2C332.383 62.176 332.799 61.056 332.799 59.84C332.799 58.176 332.127 56.8 330.783 55.712C329.439 54.624 327.967 53.696 326.367 52.928C324.575 52.032 322.815 51.008 321.087 49.856C319.359 48.64 317.919 47.136 316.767 45.344C315.615 43.552 315.039 41.376 315.039 38.816C315.039 36.192 315.743 33.952 317.151 32.096C318.623 30.176 320.575 28.704 323.007 27.68C325.439 26.592 328.095 26.048 330.975 26.048C333.151 26.048 335.167 26.304 337.023 26.816C338.943 27.264 340.255 27.712 340.959 28.16C341.471 28.8 341.855 30.048 342.111 31.904C342.431 33.696 342.591 35.744 342.591 38.048C342.591 38.752 341.951 39.104 340.671 39.104C340.223 39.104 339.743 38.944 339.231 38.624C338.719 38.24 338.399 37.888 338.271 37.568C337.439 35.008 336.351 33.088 335.007 31.808C333.727 30.528 332.319 29.888 330.783 29.888C329.375 29.888 328.095 30.336 326.943 31.232C325.855 32.128 325.311 33.312 325.311 34.784C325.311 36.064 325.951 37.248 327.231 38.336C328.575 39.36 330.111 40.32 331.839 41.216C336.063 43.392 339.071 45.504 340.863 47.552C342.655 49.6 343.551 52.352 343.551 55.808C343.551 60.096 342.175 63.424 339.423 65.792C336.671 68.16 332.543 69.344 327.039 69.344ZM389.466 69.536C386.97 69.536 384.41 69.024 381.786 68C379.162 66.976 376.954 65.44 375.162 63.392C373.37 61.28 372.474 58.624 372.474 55.424C372.474 51.904 373.754 48.352 376.314 44.768C378.874 41.12 382.554 38.144 387.354 35.84L389.37 34.88L388.698 34.208C388.058 33.504 387.194 32.608 386.106 31.52C385.082 30.368 384.154 29.056 383.322 27.584C382.554 26.048 382.17 24.352 382.17 22.496C382.17 20.256 382.938 18.24 384.474 16.448C386.01 14.592 388.154 13.12 390.906 12.032C393.658 10.944 396.858 10.4 400.506 10.4C403.45 10.4 406.074 10.848 408.378 11.744C410.746 12.576 412.602 13.76 413.946 15.296C415.29 16.768 415.962 18.528 415.962 20.576C415.962 23.584 415.034 25.888 413.178 27.488C411.386 29.088 408.922 30.464 405.786 31.616L403.482 32.48L405.594 34.688C407.194 36.288 408.89 38.048 410.682 39.968C412.538 41.888 414.266 43.648 415.866 45.248L417.786 47.168L419.034 46.016C420.25 44.928 421.21 43.808 421.914 42.656C422.682 41.504 423.258 40.416 423.642 39.392C424.026 38.304 424.218 37.376 424.218 36.608C424.218 35.584 423.93 34.848 423.354 34.4C422.778 33.888 422.138 33.504 421.434 33.248C420.858 32.992 420.346 32.768 419.898 32.576C419.514 32.32 419.322 31.904 419.322 31.328C419.322 30.624 419.61 30.208 420.186 30.08C420.762 29.952 421.466 29.888 422.298 29.888C423.258 29.888 424.25 29.952 425.274 30.08C426.298 30.208 427.354 30.336 428.442 30.464C429.594 30.592 430.778 30.656 431.994 30.656C433.402 30.656 434.906 30.464 436.506 30.08C438.106 29.696 439.674 29.344 441.21 29.024C442.746 28.64 444.058 28.448 445.146 28.448C445.658 28.448 446.042 28.608 446.298 28.928C446.618 29.184 446.778 29.472 446.778 29.792C446.778 30.368 446.49 30.944 445.914 31.52C445.338 32.032 444.506 32.384 443.418 32.576C441.306 32.96 439.514 33.696 438.042 34.784C436.57 35.808 435.29 36.864 434.202 37.952C433.306 38.784 432.378 39.616 431.418 40.448C430.522 41.28 429.594 42.112 428.634 42.944C427.738 43.776 426.81 44.608 425.85 45.44C424.89 46.208 423.93 47.008 422.97 47.84C422.01 48.608 421.082 49.408 420.186 50.24L422.01 52.352C423.994 54.72 425.882 56.768 427.674 58.496C429.466 60.16 431.29 60.992 433.146 60.992C434.234 60.992 435.418 60.896 436.698 60.704C438.042 60.448 439.386 60.096 440.73 59.648C441.05 59.52 441.402 59.392 441.786 59.264C442.234 59.072 442.65 58.976 443.034 58.976C443.546 58.976 443.962 59.072 444.282 59.264C444.602 59.392 444.762 59.776 444.762 60.416C444.762 61.376 444.058 62.592 442.65 64.064C441.306 65.472 439.386 66.72 436.89 67.808C434.458 68.896 431.61 69.44 428.346 69.44C425.786 69.44 423.578 69.12 421.722 68.48C419.866 67.904 418.17 67.008 416.634 65.792C415.098 64.576 413.498 63.072 411.834 61.28L410.01 59.264L409.53 59.84C407.674 62.016 405.626 63.84 403.386 65.312C401.21 66.72 398.938 67.776 396.57 68.48C394.202 69.184 391.834 69.536 389.466 69.536ZM397.434 59.84C398.714 59.84 400.186 59.744 401.85 59.552C403.514 59.296 405.05 58.464 406.458 57.056L407.13 56.384L405.594 54.56C403.418 52 401.274 49.472 399.162 46.976C397.114 44.48 394.97 41.952 392.73 39.392L391.578 38.048L389.946 39.104C389.114 39.616 388.41 40.32 387.834 41.216C387.322 42.048 386.938 42.976 386.682 44C386.426 45.024 386.298 46.144 386.298 47.36C386.298 51.264 387.29 54.336 389.274 56.576C391.322 58.752 394.042 59.84 397.434 59.84ZM401.466 29.984L402.426 29.024C403.13 28.32 403.642 27.232 403.962 25.76C404.346 24.224 404.538 22.688 404.538 21.152C404.602 19.296 404.282 17.664 403.578 16.256C402.874 14.784 401.69 14.048 400.026 14.048C399.002 14.048 398.042 14.496 397.146 15.392C396.314 16.288 395.898 17.472 395.898 18.944C395.898 20.736 396.122 22.272 396.57 23.552C397.018 24.768 397.53 25.728 398.106 26.432C398.682 27.136 399.13 27.68 399.45 28.064L401.466 29.984ZM507.71 68.672C505.15 68.672 502.526 68.608 499.838 68.48C497.214 68.352 494.846 68.224 492.734 68.096C490.622 68.032 489.15 68 488.318 68C487.038 68 485.534 68 483.806 68C482.142 68.064 480.414 68.128 478.622 68.192C476.894 68.256 475.326 68.288 473.918 68.288C473.534 68.288 473.15 68.16 472.766 67.904C472.382 67.648 472.19 67.296 472.19 66.848C472.19 66.272 472.35 65.824 472.67 65.504C472.99 65.12 473.438 64.864 474.014 64.736C476.446 64.224 478.11 63.584 479.006 62.816C479.902 62.048 480.35 60.672 480.35 58.688V15.104C480.35 13.056 479.934 11.616 479.102 10.784C478.27 9.952 476.574 9.248 474.014 8.672C473.438 8.544 472.99 8.32 472.67 8C472.35 7.616 472.19 7.136 472.19 6.56C472.19 6.112 472.382 5.76 472.766 5.504C473.15 5.248 473.534 5.12 473.918 5.12C475.326 5.12 476.894 5.152 478.622 5.216C480.414 5.27999 482.142 5.376 483.806 5.504C485.534 5.568 487.038 5.6 488.318 5.6C489.278 5.6 490.59 5.568 492.254 5.504C493.982 5.376 495.838 5.27999 497.822 5.216C499.87 5.088 501.854 4.992 503.774 4.928C505.694 4.8 507.294 4.736 508.574 4.736C513.054 4.736 517.31 5.504 521.342 7.04C525.374 8.512 528.958 10.624 532.094 13.376C535.23 16.128 537.694 19.424 539.486 23.264C541.278 27.04 542.174 31.232 542.174 35.84C542.174 40.064 541.438 44.16 539.966 48.128C538.494 52.032 536.286 55.52 533.342 58.592C530.462 61.664 526.878 64.128 522.59 65.984C518.302 67.776 513.342 68.672 507.71 68.672ZM506.174 63.392C510.398 63.392 513.854 62.368 516.542 60.32C519.294 58.272 521.31 55.392 522.59 51.68C523.934 47.968 524.606 43.616 524.606 38.624C524.606 34.4 524.19 30.56 523.358 27.104C522.59 23.648 521.406 20.672 519.806 18.176C518.206 15.68 516.19 13.76 513.758 12.416C511.326 11.008 508.478 10.304 505.214 10.304C503.294 10.304 501.694 10.368 500.414 10.496C499.198 10.624 498.27 10.912 497.63 11.36C496.99 11.744 496.67 12.448 496.67 13.472V55.136C496.67 57.12 496.99 58.72 497.63 59.936C498.334 61.152 499.39 62.048 500.798 62.624C502.206 63.136 503.998 63.392 506.174 63.392ZM577.363 70.016C576.787 70.016 576.499 69.696 576.499 69.056C576.499 68.288 576.563 67.264 576.691 65.984C576.883 64.64 576.979 63.648 576.979 63.008C576.979 62.688 576.947 62.432 576.883 62.24C576.883 62.048 576.851 61.92 576.787 61.856C575.251 63.84 573.107 65.6 570.355 67.136C567.603 68.672 564.755 69.44 561.811 69.44C559.827 69.44 558.035 68.832 556.435 67.616C554.835 66.336 553.555 64.64 552.595 62.528C551.699 60.416 551.251 58.08 551.251 55.52V37.856C551.251 36.384 550.995 35.2 550.483 34.304C549.971 33.344 548.979 32.736 547.507 32.48C547.123 32.416 546.771 32.256 546.451 32C546.131 31.68 545.971 31.232 545.971 30.656C545.971 30.208 546.099 29.824 546.355 29.504C546.611 29.184 546.963 28.992 547.411 28.928C550.227 28.8 552.819 28.512 555.187 28.064C557.619 27.616 560.019 27.104 562.387 26.528C562.707 26.4 563.059 26.304 563.443 26.24C563.891 26.112 564.307 26.048 564.691 26.048C565.587 26.048 566.003 26.496 565.939 27.392C565.683 28.864 565.491 30.112 565.363 31.136C565.235 32.096 565.171 33.312 565.171 34.784V53.12C565.171 54.656 565.395 56 565.843 57.152C566.291 58.24 566.931 59.104 567.763 59.744C568.595 60.32 569.523 60.64 570.547 60.704C571.443 60.704 572.339 60.576 573.235 60.32C574.195 60 575.091 59.424 575.923 58.592C576.243 58.272 576.531 57.632 576.787 56.672C577.107 55.712 577.267 54.432 577.267 52.832V37.856C577.267 36.768 577.075 35.84 576.691 35.072C576.371 34.304 575.827 33.696 575.059 33.248C574.355 32.736 573.459 32.448 572.371 32.384C571.603 32.32 570.995 32.128 570.547 31.808C570.163 31.488 569.971 30.944 569.971 30.176C569.971 29.472 570.195 28.96 570.643 28.64C571.155 28.32 571.731 28.16 572.371 28.16C575.891 27.904 578.675 27.712 580.723 27.584C582.771 27.392 584.435 27.2 585.715 27.008C586.995 26.816 588.243 26.592 589.459 26.336C589.651 26.272 589.875 26.208 590.131 26.144C590.387 26.08 590.611 26.048 590.803 26.048C591.763 26.048 592.243 26.432 592.243 27.2C592.243 27.456 592.211 27.712 592.147 27.968C592.083 28.224 591.987 28.512 591.859 28.832C591.795 29.088 591.699 29.664 591.571 30.56C591.507 31.392 591.411 32.288 591.283 33.248C591.219 34.208 591.187 34.976 591.187 35.552V57.824C591.187 59.232 591.347 60.16 591.667 60.608C592.051 61.056 592.467 61.28 592.915 61.28C593.171 61.28 593.555 61.312 594.067 61.376C594.643 61.376 595.027 61.376 595.219 61.376C595.859 61.376 596.339 61.568 596.659 61.952C596.979 62.272 597.139 62.688 597.139 63.2C597.139 63.84 597.011 64.352 596.755 64.736C596.563 65.12 596.115 65.344 595.411 65.408C592.211 65.664 589.299 66.208 586.675 67.04C584.051 67.872 581.811 68.64 579.955 69.344C579.507 69.536 579.059 69.696 578.611 69.824C578.163 69.952 577.747 70.016 577.363 70.016ZM601.715 68.288C601.331 68.288 600.915 68.16 600.467 67.904C600.019 67.648 599.795 67.296 599.795 66.848C599.795 66.336 600.019 65.92 600.467 65.6C600.979 65.28 601.491 65.024 602.003 64.832C602.963 64.512 603.795 64.16 604.499 63.776C605.203 63.328 605.555 62.464 605.555 61.184V38.912C605.555 37.632 605.363 36.544 604.979 35.648C604.595 34.688 603.859 34.112 602.771 33.92C602.515 33.856 602.259 33.696 602.003 33.44C601.747 33.184 601.619 32.736 601.619 32.096C601.619 31.136 601.971 30.56 602.675 30.368C604.211 29.984 605.939 29.536 607.859 29.024C609.779 28.448 611.635 27.84 613.427 27.2C615.283 26.56 616.819 25.92 618.035 25.28C618.291 25.152 618.515 25.024 618.707 24.896C618.899 24.768 619.091 24.704 619.283 24.704C619.923 24.704 620.243 25.088 620.243 25.856C620.243 26.368 620.147 27.232 619.955 28.448C619.827 29.6 619.763 30.624 619.763 31.52C619.763 32.16 619.827 32.544 619.955 32.672H620.147C622.195 30.624 624.371 29.024 626.675 27.872C628.979 26.72 631.507 26.144 634.259 26.144C636.179 26.144 637.971 26.88 639.635 28.352C641.363 29.824 642.611 31.616 643.379 33.728H643.859C645.715 31.296 647.827 29.44 650.195 28.16C652.563 26.816 655.219 26.144 658.163 26.144C660.147 26.144 661.939 26.688 663.539 27.776C665.203 28.864 666.515 30.432 667.475 32.48C668.499 34.528 669.011 37.024 669.011 39.968V61.28C669.011 62.56 669.363 63.392 670.067 63.776C670.771 64.16 671.603 64.512 672.563 64.832C673.075 65.024 673.523 65.28 673.907 65.6C674.291 65.92 674.483 66.336 674.483 66.848C674.483 67.296 674.291 67.648 673.907 67.904C673.587 68.16 673.235 68.288 672.851 68.288C671.571 68.288 670.323 68.224 669.107 68.096C667.891 68.032 666.707 67.968 665.555 67.904C664.403 67.84 663.251 67.808 662.099 67.808C661.011 67.808 659.955 67.84 658.931 67.904C657.971 67.968 656.979 68.032 655.955 68.096C654.931 68.224 653.779 68.288 652.499 68.288C652.115 68.288 651.763 68.16 651.443 67.904C651.123 67.648 650.963 67.296 650.963 66.848C650.963 66.336 651.123 65.92 651.443 65.6C651.827 65.28 652.275 65.024 652.787 64.832C653.619 64.576 654.195 64.256 654.515 63.872C654.899 63.488 655.091 62.848 655.091 61.952V42.368C655.091 40.768 654.899 39.424 654.515 38.336C654.131 37.184 653.555 36.32 652.787 35.744C652.083 35.104 651.251 34.784 650.291 34.784C649.651 34.784 648.883 34.976 647.987 35.36C647.091 35.68 646.195 36.224 645.299 36.992C644.595 37.632 644.243 38.752 644.243 40.352V61.28C644.243 62.56 644.435 63.392 644.819 63.776C645.203 64.16 645.875 64.512 646.835 64.832C647.347 65.024 647.795 65.28 648.179 65.6C648.563 65.92 648.755 66.336 648.755 66.848C648.755 67.296 648.563 67.648 648.179 67.904C647.859 68.16 647.507 68.288 647.123 68.288C645.843 68.288 644.659 68.224 643.571 68.096C642.547 68.032 641.523 67.968 640.499 67.904C639.539 67.84 638.483 67.808 637.331 67.808C636.243 67.808 635.187 67.84 634.163 67.904C633.203 67.968 632.211 68.032 631.187 68.096C630.163 68.224 629.011 68.288 627.731 68.288C627.347 68.288 626.995 68.16 626.675 67.904C626.355 67.648 626.195 67.296 626.195 66.848C626.195 66.336 626.355 65.92 626.675 65.6C627.059 65.28 627.507 65.024 628.019 64.832C628.851 64.576 629.427 64.256 629.747 63.872C630.131 63.488 630.323 62.848 630.323 61.952V42.368C630.323 40.768 630.131 39.424 629.747 38.336C629.363 37.248 628.819 36.416 628.115 35.84C627.411 35.2 626.579 34.88 625.619 34.88C624.979 34.88 624.211 35.04 623.315 35.36C622.419 35.68 621.459 36.192 620.435 36.896C619.795 37.344 619.475 38.368 619.475 39.968V61.28C619.475 62.368 619.603 63.168 619.859 63.68C620.179 64.128 620.819 64.512 621.779 64.832C622.291 65.024 622.707 65.28 623.027 65.6C623.411 65.92 623.603 66.336 623.603 66.848C623.603 67.232 623.443 67.584 623.123 67.904C622.803 68.16 622.451 68.288 622.067 68.288C620.787 68.288 619.603 68.224 618.515 68.096C617.491 68.032 616.499 67.968 615.539 67.904C614.579 67.84 613.523 67.808 612.371 67.808C611.283 67.808 610.163 67.84 609.011 67.904C607.859 67.968 606.675 68.032 605.459 68.096C604.243 68.224 602.995 68.288 601.715 68.288ZM701.347 69.344C699.363 69.344 697.571 69.184 695.971 68.864C694.371 68.544 692.931 68.192 691.651 67.808C690.755 67.552 689.923 67.36 689.155 67.232C688.451 67.04 687.811 66.944 687.234 66.944C686.595 66.944 685.955 67.072 685.315 67.328C684.675 67.52 684.099 67.808 683.587 68.192C682.947 68.64 682.435 68.864 682.051 68.864C681.411 68.864 680.931 68.736 680.611 68.48C680.355 68.224 680.227 67.936 680.227 67.616C680.227 67.04 680.419 65.888 680.803 64.16C681.187 62.432 681.347 60.192 681.283 57.44L680.803 15.584C680.803 13.856 680.611 12.352 680.227 11.072C679.843 9.728 678.851 8.928 677.251 8.672C676.931 8.608 676.643 8.448 676.387 8.192C676.195 7.936 676.099 7.584 676.099 7.136C676.099 6.752 676.195 6.432 676.387 6.17599C676.579 5.92 676.835 5.76 677.155 5.696C678.691 5.376 680.419 4.928 682.339 4.352C684.323 3.712 686.243 3.04 688.099 2.336C689.955 1.632 691.427 1.088 692.515 0.703997C693.155 0.447996 693.635 0.319996 693.955 0.319996C694.403 0.319996 694.691 0.447996 694.819 0.703997C695.011 0.959997 695.107 1.248 695.107 1.568C695.107 2.016 695.011 2.78399 694.819 3.872C694.691 4.896 694.627 5.856 694.627 6.752L694.531 27.488C694.531 28.256 694.595 28.896 694.723 29.408C694.915 29.856 695.139 30.08 695.395 30.08C697.379 28.8 699.395 27.84 701.443 27.2C703.491 26.496 705.443 26.144 707.299 26.144C710.691 26.144 713.731 27.04 716.419 28.832C719.107 30.56 721.219 32.928 722.755 35.936C724.355 38.944 725.155 42.368 725.155 46.208C725.155 50.752 724.131 54.784 722.083 58.304C720.099 61.76 717.315 64.48 713.731 66.464C710.211 68.384 706.083 69.344 701.347 69.344ZM702.883 65.024C704.483 65.024 705.827 64.288 706.915 62.816C708.003 61.28 708.835 59.296 709.411 56.864C710.051 54.368 710.371 51.68 710.371 48.8C710.371 46.24 710.051 43.648 709.411 41.024C708.835 38.4 707.875 36.224 706.531 34.496C705.251 32.704 703.555 31.808 701.443 31.808C700.611 31.808 699.459 31.936 697.987 32.192C696.579 32.448 695.427 32.896 694.531 33.536V54.368C694.531 56.416 694.915 58.272 695.683 59.936C696.515 61.536 697.571 62.784 698.851 63.68C700.131 64.576 701.475 65.024 702.883 65.024ZM739.828 69.344C737.972 69.344 736.276 68.928 734.74 68.096C733.204 67.328 731.988 66.272 731.092 64.928C730.196 63.52 729.748 61.984 729.748 60.32C729.748 58.08 730.452 56.192 731.86 54.656C733.332 53.12 735.444 51.744 738.196 50.528L746.452 46.88C747.732 46.304 748.532 45.792 748.852 45.344C749.172 44.832 749.332 43.968 749.332 42.752L749.428 37.472C749.492 35.616 749.204 34.208 748.564 33.248C747.924 32.224 746.932 31.712 745.588 31.712C744.82 31.712 744.02 31.904 743.188 32.288C742.356 32.608 741.748 32.992 741.364 33.44C741.172 33.696 741.044 33.984 740.98 34.304C740.916 34.624 740.884 34.944 740.884 35.264C740.884 35.648 740.916 36.16 740.98 36.8C741.044 37.376 741.076 37.856 741.076 38.24C741.076 38.688 740.532 39.232 739.444 39.872C738.356 40.448 737.108 40.992 735.7 41.504C734.292 41.952 733.076 42.176 732.052 42.176C731.54 42.176 731.092 41.984 730.708 41.6C730.388 41.152 730.228 40.608 730.228 39.968C730.228 38.944 730.58 37.952 731.284 36.992C731.988 36.032 733.172 34.88 734.836 33.536C736.564 32.128 738.452 30.88 740.5 29.792C742.548 28.704 744.564 27.84 746.548 27.2C748.532 26.496 750.228 26.144 751.636 26.144C755.284 26.144 758.196 27.328 760.372 29.696C762.548 32 763.572 35.104 763.444 39.008L762.964 57.632C762.9 59.104 763.124 60.384 763.636 61.472C764.212 62.496 764.916 63.008 765.748 63.008C766.9 63.008 767.924 62.592 768.82 61.76C769.012 61.568 769.204 61.472 769.396 61.472C769.716 61.472 769.972 61.6 770.164 61.856C770.42 62.048 770.548 62.304 770.548 62.624C770.548 63.392 769.908 64.416 768.628 65.696C767.412 66.912 766.1 67.808 764.692 68.384C763.284 69.024 761.812 69.344 760.276 69.344C756.564 69.344 753.46 67.488 750.964 63.776H750.772C748.66 65.76 746.772 67.168 745.108 68C743.444 68.896 741.684 69.344 739.828 69.344ZM745.78 62.72C746.356 62.72 746.836 62.624 747.22 62.432C747.604 62.24 747.956 61.92 748.276 61.472C748.468 61.216 748.596 60.896 748.66 60.512C748.788 60.128 748.852 59.712 748.852 59.264L749.14 51.872C749.14 51.296 749.044 50.944 748.852 50.816C748.66 50.624 748.436 50.528 748.18 50.528C748.052 50.528 747.892 50.56 747.7 50.624C747.572 50.624 747.412 50.688 747.22 50.816C745.684 51.648 744.5 52.512 743.668 53.408C742.9 54.24 742.516 55.776 742.516 58.016C742.516 59.872 742.868 61.12 743.572 61.76C744.34 62.4 745.076 62.72 745.78 62.72ZM786.414 69.344C784.238 69.344 782.126 69.088 780.078 68.576C778.094 68.128 776.238 67.328 774.51 66.176C773.87 65.152 773.422 63.584 773.166 61.472C772.91 59.296 772.814 56.96 772.878 54.464C772.878 53.632 773.55 53.216 774.894 53.216C775.47 53.216 775.95 53.408 776.334 53.792C776.782 54.176 777.07 54.528 777.198 54.848C778.478 57.408 779.886 59.712 781.422 61.76C782.958 63.744 784.91 64.736 787.278 64.736C788.942 64.736 790.158 64.224 790.926 63.2C791.758 62.176 792.174 61.056 792.174 59.84C792.174 58.176 791.502 56.8 790.158 55.712C788.814 54.624 787.342 53.696 785.742 52.928C783.95 52.032 782.19 51.008 780.462 49.856C778.734 48.64 777.294 47.136 776.142 45.344C774.99 43.552 774.414 41.376 774.414 38.816C774.414 36.192 775.118 33.952 776.526 32.096C777.998 30.176 779.95 28.704 782.382 27.68C784.814 26.592 787.47 26.048 790.35 26.048C792.526 26.048 794.542 26.304 796.398 26.816C798.318 27.264 799.63 27.712 800.334 28.16C800.846 28.8 801.23 30.048 801.486 31.904C801.806 33.696 801.966 35.744 801.966 38.048C801.966 38.752 801.326 39.104 800.046 39.104C799.598 39.104 799.118 38.944 798.606 38.624C798.094 38.24 797.774 37.888 797.646 37.568C796.814 35.008 795.726 33.088 794.382 31.808C793.102 30.528 791.694 29.888 790.158 29.888C788.75 29.888 787.47 30.336 786.318 31.232C785.23 32.128 784.686 33.312 784.686 34.784C784.686 36.064 785.326 37.248 786.606 38.336C787.95 39.36 789.486 40.32 791.214 41.216C795.438 43.392 798.446 45.504 800.238 47.552C802.03 49.6 802.926 52.352 802.926 55.808C802.926 60.096 801.55 63.424 798.798 65.792C796.046 68.16 791.918 69.344 786.414 69.344ZM821.758 69.344C819.582 69.344 817.47 69.088 815.422 68.576C813.438 68.128 811.582 67.328 809.854 66.176C809.214 65.152 808.766 63.584 808.51 61.472C808.254 59.296 808.158 56.96 808.222 54.464C808.222 53.632 808.894 53.216 810.238 53.216C810.814 53.216 811.294 53.408 811.678 53.792C812.126 54.176 812.414 54.528 812.542 54.848C813.822 57.408 815.23 59.712 816.766 61.76C818.302 63.744 820.254 64.736 822.622 64.736C824.286 64.736 825.502 64.224 826.27 63.2C827.102 62.176 827.518 61.056 827.518 59.84C827.518 58.176 826.846 56.8 825.502 55.712C824.158 54.624 822.686 53.696 821.086 52.928C819.294 52.032 817.534 51.008 815.806 49.856C814.078 48.64 812.638 47.136 811.486 45.344C810.334 43.552 809.758 41.376 809.758 38.816C809.758 36.192 810.462 33.952 811.87 32.096C813.342 30.176 815.294 28.704 817.726 27.68C820.158 26.592 822.814 26.048 825.694 26.048C827.87 26.048 829.886 26.304 831.742 26.816C833.662 27.264 834.974 27.712 835.678 28.16C836.19 28.8 836.574 30.048 836.83 31.904C837.15 33.696 837.31 35.744 837.31 38.048C837.31 38.752 836.67 39.104 835.39 39.104C834.942 39.104 834.462 38.944 833.95 38.624C833.438 38.24 833.118 37.888 832.99 37.568C832.158 35.008 831.07 33.088 829.726 31.808C828.446 30.528 827.038 29.888 825.502 29.888C824.094 29.888 822.814 30.336 821.662 31.232C820.574 32.128 820.03 33.312 820.03 34.784C820.03 36.064 820.67 37.248 821.95 38.336C823.294 39.36 824.83 40.32 826.558 41.216C830.782 43.392 833.79 45.504 835.582 47.552C837.374 49.6 838.27 52.352 838.27 55.808C838.27 60.096 836.894 63.424 834.142 65.792C831.39 68.16 827.262 69.344 821.758 69.344Z" fill="#BA0C0C"/>
</svg>
